<svg version="1.1" id="Layer_1" xmlns="http://www.w3.org/2000/svg" x="0px" y="0px" width="532" height="469"
	viewBox="0 0 532 469" enable-background="new 0 0 532 469" xml:space="preserve">
<path fill="#FEFEFE" opacity="1.000000" stroke="none"
	d="
M1.000000,74.333328
	C10.884485,71.817741 21.055069,71.748055 30.986168,69.969994
	C37.044273,68.885345 43.249672,68.204666 49.141869,66.742386
	C64.475502,62.936974 80.106277,60.476044 95.313911,56.110607
	C103.344330,53.805431 111.486420,51.839855 119.289185,48.861523
	C121.869324,47.876678 122.861526,47.947781 124.234634,50.470215
	C128.222778,57.796516 135.512268,59.539127 142.968506,61.091679
	C147.384705,62.011223 151.788010,61.960258 157.377853,62.046417
	C153.648026,63.998325 150.973526,65.904396 147.994247,66.874458
	C129.406006,72.926857 111.080940,79.776611 92.061707,84.524101
	C72.550461,89.394394 52.854374,92.444656 32.768082,90.832626
	C21.509602,89.929077 10.998742,86.326065 3.448577,76.996635
	C2.940423,76.368736 2.195703,75.932281 1.280505,75.703392
	C1.000000,75.555557 1.000000,75.111107 1.000000,74.333328
z"/>
<path fill="#FEFEFE" opacity="1.000000" stroke="none"
	d="
M273.583344,1.000000 
	C272.919952,3.391532 275.391418,3.111470 276.257446,3.618817 
	C283.121643,7.640087 288.252991,16.660763 286.961517,22.845310 
	C285.061310,31.945021 276.740479,39.756657 267.934662,39.884380 
	C260.452271,39.992901 251.852692,35.501598 249.032883,27.193024 
	C246.474838,19.655792 248.469177,9.447231 256.437012,4.908236 
	C257.955139,4.043410 259.206238,2.709802 260.290283,1.296242 
	C262.370575,1.000000 264.741119,1.000000 267.555847,1.000000 
	C268.166656,1.134169 268.333344,1.268338 268.750000,1.201253 
	C270.388885,1.000000 271.777802,1.000000 273.583344,1.000000 
z"/>
<path fill="#000000" opacity="1.000000" stroke="none"
	d="
M268.750000,1.000000
	C269.331879,2.084198 268.787720,1.946749 268.058594,1.316519
	C268.000000,1.000000 268.500000,1.000000 268.750000,1.000000
z"/>
<path fill="#FEFEFE" opacity="1.000000" stroke="none" 
	d="
M184.984924,159.982178 
	C178.049927,144.720840 179.771729,130.364258 188.614029,117.077812 
	C196.544266,105.161789 208.766235,99.723396 222.469543,96.928215 
	C227.461990,95.909859 232.517731,96.294365 237.514633,95.149300 
	C244.306137,93.592979 259.374878,102.253365 260.660736,108.593819 
	C261.432617,112.399925 257.581573,114.496696 254.557220,115.911530 
	C246.586731,119.640213 238.266525,120.321701 230.015366,116.919342 
	C218.443100,112.147545 206.188538,123.996513 206.116089,134.653046 
	C206.090363,138.435120 204.342880,141.921127 205.259232,145.860291 
	C208.167648,158.362915 218.354218,162.279541 228.616791,165.957062 
	C242.557205,170.952515 257.150391,170.700500 271.721802,171.142685 
	C289.279999,171.675522 306.220062,175.589371 320.499878,186.387131 
	C329.917572,193.508423 335.260529,203.425446 336.078278,215.637772 
	C336.825836,226.802063 333.850708,236.342636 325.483002,243.908447 
	C323.090088,246.072021 320.381592,247.927139 317.648010,249.655060 
	C316.405548,250.440414 314.547760,250.472992 313.314423,249.665207 
	C306.466522,245.180084 299.393341,241.195343 290.510559,238.940674 
	C297.466736,235.848938 304.194458,234.723511 309.591614,230.253464 
	C315.079224,225.708511 317.028809,215.097885 312.848389,209.275314 
	C307.848267,202.311081 300.962158,198.797729 292.749451,196.913040 
	C283.417145,194.771408 274.023529,194.263763 264.512299,193.841965 
	C249.705444,193.185303 234.761917,192.508087 220.543060,187.868073 
	C205.559006,182.978378 192.703201,174.900284 184.984924,159.982178 
z"/>
<path fill="#FEFEFE" opacity="1.000000" stroke="none" 
	d="
M259.655518,74.246735 
	C261.447327,77.707466 262.915405,80.898140 264.519684,84.018784 
	C265.434540,85.798325 264.309479,86.825409 263.059967,86.840691 
	C252.172241,86.973824 241.282196,86.917557 229.741486,86.917557 
	C231.081192,84.419998 233.520813,85.538734 233.556259,82.990532 
	C232.813324,82.990532 232.021149,82.808189 231.351776,83.017845 
	C221.197083,86.198433 214.773849,78.123886 206.748505,74.903229 
	C205.996552,74.601456 206.028839,73.906517 206.029388,73.252762 
	C206.030380,72.082787 206.891647,72.190331 207.704620,71.974106 
	C210.527710,71.223259 213.313110,70.330704 217.340866,69.124207 
	C211.979996,66.809052 207.791733,68.054581 204.264587,69.200775 
	C193.680084,72.640350 186.807007,67.374687 180.224106,60.539284 
	C184.716705,57.515118 190.595825,58.170700 194.941925,54.179878 
	C190.681564,53.500031 186.852554,54.666267 183.212082,55.460217 
	C168.463654,58.676662 153.976395,59.802010 139.431274,54.220909 
	C135.933197,52.878670 133.163605,50.740021 130.532471,48.573750 
	C127.109619,45.755657 130.492874,43.616257 132.636642,42.215611 
	C137.624115,38.957027 142.752823,35.884804 147.992844,33.048473 
	C160.596664,26.226255 173.001633,19.031534 186.462036,13.867389 
	C195.586197,10.366859 204.816177,8.064146 214.603943,9.050185 
	C225.383591,10.136147 229.206589,20.845406 227.662827,31.761259 
	C225.883911,44.339783 226.414093,56.490768 237.127136,65.593536 
	C241.753616,69.524628 247.443985,70.802788 253.379395,70.992569 
	C255.887711,71.072769 258.309052,71.076088 259.655518,74.246735 
z"/>
<path fill="#FEFEFE" opacity="1.000000" stroke="none" 
	d="
M310.776733,13.628479 
	C316.911835,7.106290 324.620331,8.315764 331.564026,9.487047 
	C345.622437,11.858472 358.245667,18.371391 370.855164,24.874918 
	C381.027008,30.121208 390.699951,36.155178 400.564850,41.893238 
	C406.247040,45.198387 406.665497,47.411991 401.269440,50.839703 
	C394.543945,55.111904 387.053772,57.485306 378.998596,58.014122 
	C366.767792,58.817062 354.924988,56.407246 343.057617,54.046391 
	C341.941223,53.824295 340.742310,54.016773 338.994629,54.016773 
	C343.383057,58.181343 349.305878,57.561245 353.551880,60.359268 
	C346.589081,70.258392 337.109100,71.867622 326.289978,68.576027 
	C323.496765,67.726219 320.861938,67.989639 317.427277,68.292793 
	C320.845886,71.972412 325.930573,70.298332 329.104431,73.726250 
	C323.517181,76.192772 318.503052,79.389473 313.840607,83.074783 
	C311.940796,84.576447 310.514221,82.885704 308.854858,82.958549 
	C305.739746,83.095306 302.614349,82.997948 299.291077,82.997948 
	C300.319824,84.759575 301.989532,84.786148 303.655121,85.430923 
	C302.241455,86.480949 300.990417,87.033401 299.314362,87.017235 
	C290.489014,86.932060 281.662476,86.958694 272.836365,86.966370 
	C269.515594,86.969254 267.632874,86.500465 270.530396,82.795654 
	C271.745758,81.241684 272.080811,78.935654 272.605957,76.916862 
	C274.514069,69.581451 281.081268,70.879097 286.003754,70.220642 
	C300.941010,68.222565 306.507904,55.603317 306.927948,44.605980 
	C307.121216,39.546227 307.013611,34.478020 306.235138,29.337162 
	C305.422729,23.972120 305.958038,18.180956 310.776733,13.628479 
z"/>
<path fill="#FEFEFE" opacity="1.000000" stroke="none" 
	d="
M281.954163,241.972961 
	C290.598267,243.724625 298.654999,245.678070 305.558746,250.927032 
	C315.064545,258.154327 320.002441,267.659912 321.021667,279.469879 
	C321.759552,288.019928 319.524567,295.374634 314.056702,302.098541 
	C309.594543,307.585663 307.018188,308.268005 300.960236,304.544403 
	C297.160858,302.209045 293.021332,300.427032 288.771759,298.262970 
	C290.079987,296.673920 291.632812,296.350647 293.395691,295.939819 
	C301.525909,294.045197 304.705048,286.234863 303.412506,278.897064 
	C301.370239,267.303009 289.904480,262.380219 279.827911,260.858154 
	C270.881958,259.506866 261.942780,260.658936 253.054581,259.902832 
	C236.472290,258.492249 220.281509,254.747818 208.358139,242.450531 
	C197.382690,231.130875 195.041443,219.169586 202.084015,202.742020 
	C203.474365,199.498886 205.322052,196.408005 207.291183,193.469666 
	C209.106339,190.761078 210.989441,189.497482 214.983139,191.249466 
	C221.915359,194.290497 229.201294,196.801285 238.365494,197.386368 
	C232.660187,200.705307 227.798737,202.613083 224.494873,206.875305 
	C216.292465,217.457016 218.601685,228.312393 231.699188,234.118347 
	C244.582870,239.829544 258.009003,241.061401 271.787170,241.072617 
	C275.018219,241.075241 278.418518,240.085297 281.954163,241.972961 
z"/>
<path fill="#FEFEFE" opacity="1.000000" stroke="none" 
	d="
M515.553650,86.756111 
	C503.747650,92.546684 491.423523,91.433723 479.398315,90.797142 
	C467.780731,90.182137 456.429230,87.102516 445.051849,84.548317 
	C425.705048,80.204994 406.956512,74.000626 388.428131,67.052475 
	C385.048767,65.785194 381.717926,64.388428 378.412079,62.616005 
	C382.705566,61.891132 386.980042,61.965958 391.177765,61.087299 
	C396.636139,59.944775 401.884460,58.518513 406.328827,54.969711 
	C406.587341,54.763275 407.013123,54.628975 407.104431,54.370461 
	C409.954712,46.299835 414.972687,49.067043 420.793274,50.863888 
	C439.901062,56.762611 459.356873,61.327473 479.011902,65.173180 
	C491.238068,67.565361 503.493256,69.761322 515.769287,71.825729 
	C519.927734,72.525055 524.276001,71.974861 528.482056,72.952896 
	C529.588684,73.210228 531.050110,72.882217 531.491516,74.107040 
	C531.969543,75.433350 530.399048,75.941727 529.694153,76.759262 
	C525.904846,81.153778 520.887573,83.844933 515.553650,86.756111 
z"/>
<path fill="#FEFEFE" opacity="1.000000" stroke="none" 
	d="
M298.463531,170.742432 
	C296.561615,169.017410 296.578308,168.513855 299.026917,167.924606 
	C306.050201,166.234482 312.860168,164.074173 319.135468,160.109619 
	C327.578156,154.775803 331.912201,147.150040 329.868195,137.399643 
	C328.475433,130.755783 327.149017,124.213791 320.488159,119.578262 
	C313.810455,114.931007 307.686096,115.288231 301.145416,118.072876 
	C294.995880,120.690994 279.500305,117.537132 276.086792,112.633537 
	C274.596344,110.492500 273.783630,109.139000 275.769257,106.401741 
	C281.428925,98.599709 291.341919,94.811096 301.083923,95.772118 
	C309.385254,96.591026 317.497620,97.368378 325.251862,100.673996 
	C340.387421,107.126259 350.108917,117.526962 353.162476,134.387024 
	C357.222656,156.805008 344.616913,172.548386 327.766815,182.073288 
	C324.759033,183.773529 323.075287,181.544632 321.297577,180.521210 
	C315.017059,176.905518 308.347229,174.193222 301.734680,171.334854 
	C300.868134,170.960281 299.799866,171.052429 298.463531,170.742432 
z"/>
<path fill="#FEFEFE" opacity="1.000000" stroke="none" 
	d="
M252.198395,314.974670 
	C239.020569,313.774719 227.292023,310.174347 219.246750,299.552277 
	C213.147598,291.499664 212.538040,282.174072 215.143845,272.586029 
	C216.501862,267.589264 218.469803,262.910583 221.612045,258.684387 
	C222.712280,257.204559 223.363647,256.488617 225.001038,257.514099 
	C229.583191,260.383850 235.127777,260.626160 239.907776,262.966248 
	C240.559097,263.285126 241.688141,262.654572 241.880585,263.880554 
	C242.036942,264.876709 241.208328,265.451691 240.559189,265.812592 
	C231.713150,270.730469 231.623138,279.088715 232.056152,287.572815 
	C232.156693,289.542572 233.326950,291.383698 235.018799,292.445923 
	C240.944656,296.166534 247.049820,299.223633 254.414062,299.089600 
	C265.031006,298.896271 275.630615,298.926147 285.815521,302.922638 
	C299.846191,308.428253 307.721283,319.405853 308.834564,333.827423 
	C309.677856,344.751678 304.071106,352.998657 295.081665,358.944916 
	C293.576202,359.940765 292.214600,360.324646 290.243896,358.935272 
	C286.983856,356.637024 283.123260,355.290558 279.111877,354.667999 
	C279.075653,352.158447 281.025330,352.449066 282.466858,351.793182 
	C298.122650,344.670013 298.830688,329.847626 287.485687,320.171112 
	C282.682831,316.074615 276.286316,315.379211 270.149628,315.059723 
	C264.338623,314.757233 258.500031,314.983368 252.198395,314.974670 
z"/>
<path fill="#FEFEFE" opacity="1.000000" stroke="none" 
	d="
M80.965027,91.013931 
	C91.473846,88.347198 101.626404,85.940193 111.609970,82.965935 
	C121.582291,79.995018 131.404572,76.587242 141.115753,72.731750 
	C149.169418,69.534325 156.883270,65.717613 164.811630,62.369102 
	C170.652573,59.902214 176.064407,63.241028 180.263840,67.825333 
	C180.487534,68.069542 180.836456,68.318504 180.871658,68.597481 
	C181.236923,71.491058 186.914398,70.293556 185.417252,73.454323 
	C184.592270,75.196045 181.424042,76.513489 179.243103,77.880913 
	C170.253784,83.517136 160.785431,88.293976 151.020645,92.417862 
	C140.649368,96.797897 130.177231,101.014915 119.115822,103.348274 
	C106.977852,105.908722 94.889343,107.786369 82.242607,106.290718 
	C74.799683,105.410500 67.431282,104.365746 60.079460,103.002106 
	C57.044861,102.439224 54.769264,100.038437 51.595200,99.713036 
	C50.806564,99.632187 50.152805,98.235741 49.437050,97.444023 
	C50.413204,96.970016 51.413105,96.044296 52.361725,96.094162 
	C59.325054,96.460220 65.768211,93.625664 72.562325,92.962257 
	C75.257141,92.699127 77.879395,91.692909 80.965027,91.013931 
z"/>
<path fill="#FEFEFE" opacity="1.000000" stroke="none" 
	d="
M370.451172,86.754189 
	C363.624054,82.684860 357.122864,78.820290 350.667633,74.880470 
	C349.699463,74.289581 348.946320,73.346359 347.920380,72.407471 
	C351.408691,70.543724 353.933594,67.866508 356.545197,65.182541 
	C359.930267,61.703712 366.353912,60.990829 370.984375,63.311432 
	C379.988373,67.823906 389.257996,71.788490 398.822357,75.041725 
	C408.509979,78.336884 418.066040,82.019737 428.006561,84.541855 
	C440.290344,87.658501 452.447998,91.458496 464.888580,93.689011 
	C470.734253,94.737114 476.517853,97.421173 483.057312,95.750832 
	C482.522034,98.571350 480.448608,99.334679 478.943634,99.870323 
	C465.407013,104.688118 451.424652,107.731438 437.041443,106.852158 
	C422.139496,105.941147 407.877502,101.581818 393.940277,96.379333 
	C386.136383,93.466309 378.502533,90.097786 370.451172,86.754189 
z"/>
<path fill="#FEFEFE" opacity="1.000000" stroke="none" 
	d="
M185.676224,79.755043 
	C193.653732,74.017288 197.836761,73.954926 205.611038,79.124924 
	C208.163834,80.822571 210.898087,82.255951 213.384399,84.040054 
	C214.207855,84.630959 216.367691,85.430038 213.689117,87.085220 
	C195.378220,98.400093 176.845444,109.554031 155.977921,115.220009 
	C141.831772,119.060997 127.074074,120.277130 112.773438,114.125771 
	C111.250572,113.470726 110.289818,112.030746 108.572639,111.787003 
	C108.094490,111.719124 107.727394,110.868858 107.309349,110.377525 
	C107.927666,109.927101 108.500748,109.170456 109.170967,109.071442 
	C122.633156,107.082634 135.542923,103.146614 148.081894,97.973061 
	C160.856293,92.702370 173.240555,86.600067 185.676224,79.755043 
z"/>
<path fill="#FEFEFE" opacity="1.000000" stroke="none" 
	d="
M337.433533,75.253532 
	C343.585114,74.571312 347.214722,79.051025 351.612549,81.458534 
	C365.320343,88.962616 379.305817,95.736198 394.024261,101.021721 
	C403.905487,104.570122 413.928162,107.493248 424.332520,108.988686 
	C425.215851,109.115646 426.035217,109.272346 426.425629,110.021561 
	C427.080475,111.278137 425.766144,111.926521 425.131592,112.221718 
	C421.523895,113.899994 417.943359,116.170830 414.123749,116.766594 
	C397.715942,119.325798 381.754700,117.975998 366.273102,111.122116 
	C350.911438,104.321335 336.136505,96.515968 321.663696,88.033600 
	C318.093689,85.941269 319.098633,84.713737 321.612274,83.143021 
	C326.512817,80.080742 331.502197,77.172386 337.433533,75.253532 
z"/>
<path fill="#FEFEFE" opacity="1.000000" stroke="none" 
	d="
M234.822861,315.374573 
	C239.189270,316.451721 242.543350,319.429352 247.966446,319.085693 
	C243.674164,323.511414 240.918350,327.596344 239.995285,332.661316 
	C238.311829,341.898529 246.239349,349.182800 252.182571,351.990387 
	C259.165955,355.289246 266.829742,355.593811 274.239929,357.070404 
	C290.382355,360.287018 298.099487,369.931335 296.763794,385.845520 
	C296.193054,392.645691 292.332703,398.548828 285.863892,402.030426 
	C281.740906,404.249542 278.475891,402.388794 275.076630,399.831482 
	C277.314484,398.188660 279.385284,396.799835 281.309143,395.230804 
	C286.481628,391.012360 288.896057,382.946228 286.924164,376.792206 
	C285.440521,372.161743 278.969055,368.464233 272.382843,367.957153 
	C260.717377,367.058960 249.402298,365.269897 239.404083,358.141937 
	C227.713104,349.807159 223.381683,336.981537 228.645401,323.769623 
	C229.978973,320.422333 229.990997,316.231323 234.822861,315.374573 
z"/>
<path fill="#FEFEFE" opacity="1.000000" stroke="none" 
	d="
M274.015228,156.956573 
	C273.986115,166.028229 273.976624,165.773849 265.470398,166.090942 
	C260.943939,166.259689 259.697235,164.699631 259.922760,160.382294 
	C260.252655,154.066757 260.318512,147.702026 259.936157,141.392258 
	C259.204468,129.318039 260.238770,117.693970 267.198761,107.155205 
	C271.957245,117.272659 277.477020,127.125000 274.263977,139.523804 
	C272.887695,144.834885 274.022430,150.796692 274.015228,156.956573 
z"/>
<path fill="#FDFDFD" opacity="1.000000" stroke="none" 
	d="
M241.794052,368.715942 
	C245.773590,364.989166 249.111679,368.041168 252.362778,369.280792 
	C253.819809,369.836304 252.850540,371.406708 251.949127,372.547119 
	C244.098038,382.479858 247.875320,394.686157 260.078766,399.056732 
	C267.680176,401.779083 275.334503,404.125092 281.140106,410.500031 
	C287.862579,417.881836 288.202423,435.417236 279.806946,441.736115 
	C277.955811,443.129333 276.724365,443.688812 272.747375,443.874878 
	C279.117828,440.311249 281.176239,434.848877 281.963165,428.736786 
	C282.842987,421.902771 279.613892,416.770844 274.864014,412.359619 
	C270.699829,408.492310 265.068054,408.446259 260.032166,407.099884 
	C249.423706,404.263641 239.930328,397.014191 238.081604,383.442688 
	C237.383469,378.317657 238.957993,373.488068 241.794052,368.715942 
z"/>
<path fill="#FEFEFE" opacity="1.000000" stroke="none" 
	d="
M272.664917,198.754547 
	C274.008728,200.339996 274.010315,201.948547 274.004028,203.617752 
	C273.967621,213.238129 273.867157,222.860947 274.048523,232.478027 
	C274.114166,235.957169 272.947662,237.068573 269.464935,237.064072 
	C260.028473,237.051910 260.021912,237.198380 260.013458,227.824295 
	C260.006104,219.696625 260.266937,211.558136 259.918640,203.445511 
	C259.723938,198.910309 261.377380,197.454666 265.631256,197.987167 
	C267.427917,198.212082 269.275696,198.028122 271.553986,198.106873 
	C272.171570,198.292603 272.335449,198.401459 272.664917,198.754547 
z"/>
<path fill="#FBFBFB" opacity="1.000000" stroke="none" 
	d="
M189.909637,103.984985 
	C199.406342,98.542931 209.280975,94.502953 218.086014,88.520981 
	C218.923264,87.952171 220.441803,87.741982 221.388779,88.080139 
	C229.405701,90.942787 237.964096,89.093452 246.058426,91.071320 
	C246.419449,91.159531 246.686478,91.632347 248.111694,92.978928 
	C244.112778,92.978928 241.179260,93.460678 238.471680,92.883194 
	C231.915909,91.484993 225.488846,92.474091 219.298828,94.040154 
	C203.825958,97.954758 189.989166,104.753403 181.089996,118.893158 
	C180.541382,119.764862 180.064697,119.998848 179.210098,120.004051 
	C173.492325,120.038857 167.756073,120.215782 162.234680,117.602745 
	C171.388275,113.041412 180.454330,108.523712 189.909637,103.984985 
z"/>
<path fill="#FBFBFB" opacity="1.000000" stroke="none" 
	d="
M267.592346,413.041382 
	C269.212616,413.792480 270.005676,415.121796 269.795319,416.239197 
	C267.937622,426.109009 269.425446,436.047668 269.014771,445.940674 
	C268.700317,453.516357 267.274750,461.027710 268.128876,468.719208 
	C265.668335,468.177307 265.877838,466.518463 266.028076,465.080139 
	C266.652252,459.103790 264.531097,453.280670 265.077637,447.340973 
	C265.250580,445.461700 264.285339,445.711243 263.094452,445.433380 
	C250.370346,442.464508 248.291534,431.711151 249.295334,421.520142 
	C249.654984,417.868835 250.785583,414.263397 253.284180,411.383759 
	C254.067886,410.480499 254.463440,408.883453 256.668243,409.738434 
	C258.281494,410.364044 259.931122,410.866913 260.516174,412.347137 
	C260.733734,412.897522 259.197266,414.339142 258.250092,415.118469 
	C253.495743,419.030609 252.414215,424.745941 253.306015,429.907898 
	C254.364380,436.033691 256.310699,442.784882 265.042053,443.902161 
	C264.541962,436.639954 265.875366,429.474518 264.211029,422.287750 
	C263.697723,420.071259 264.168243,417.644745 263.964355,415.334137 
	C263.722076,412.588043 265.528076,413.003784 267.592346,413.041382 
z"/>
<path fill="#FEFEFE" opacity="1.000000" stroke="none" 
	d="
M271.590820,297.565918 
	C262.122467,298.147186 262.607605,298.107056 261.837067,288.791504 
	C261.264923,281.874542 261.234650,274.983856 260.945160,268.080292 
	C260.732605,263.011505 264.142639,264.026031 266.977844,264.046661 
	C269.775146,264.067078 273.160095,262.930450 273.060211,268.034943 
	C272.869537,277.774384 271.404938,287.459869 271.590820,297.565918 
z"/>
<path fill="#FBFBFB" opacity="1.000000" stroke="none" 
	d="
M331.964203,99.976608 
	C324.674103,95.844086 317.030243,94.118088 309.203705,92.988564 
	C303.371857,92.146912 297.566223,91.326241 291.682098,92.906082 
	C290.269196,93.285431 288.258911,93.684448 287.292084,91.330032 
	C295.615021,88.921661 304.413300,90.665749 312.780914,88.194527 
	C316.684479,87.041679 319.799042,91.005882 323.101471,92.799545 
	C336.335449,99.987366 349.612030,107.059814 363.386719,113.171539 
	C365.726532,114.209709 367.955902,115.499718 370.218048,116.707634 
	C370.713409,116.972145 371.130554,117.383041 371.583740,117.726524 
	C371.005249,118.026031 370.443512,118.544899 369.845642,118.590523 
	C364.791992,118.976181 359.854706,120.404999 354.706390,120.048103 
	C351.673248,119.837830 351.304321,117.009041 350.135406,115.399994 
	C345.363068,108.830666 339.272217,103.989311 331.964203,99.976608 
z"/>
<path fill="#FFFFFF" opacity="1.000000" stroke="none" 
	d="
M268.017151,351.007996 
	C263.012146,351.688965 262.315125,349.608002 262.892242,345.490509 
	C263.952454,337.926697 262.185974,330.375763 261.946289,322.800018 
	C261.812256,318.562866 263.612244,317.926514 267.276886,317.883942 
	C271.103424,317.839508 272.140350,319.239075 272.037384,322.845612 
	C271.792755,331.413513 272.270050,339.995117 271.088013,348.544617 
	C270.824066,350.453674 270.372375,351.266174 268.017151,351.007996 
z"/>
<path fill="#FDFDFD" opacity="1.000000" stroke="none" 
	d="
M264.467224,53.232750 
	C268.281250,52.929020 272.161560,52.656467 273.893402,56.142792 
	C275.984558,60.352348 275.871002,65.120575 273.751404,69.377960 
	C271.913544,73.069466 269.420715,76.434875 266.900848,80.448540 
	C263.468292,73.300911 258.635345,67.251884 259.819031,58.753666 
	C260.260437,55.584625 261.158752,54.015007 264.467224,53.232750 
z"/>
<path fill="#FDFDFD" opacity="1.000000" stroke="none" 
	d="
M254.667969,40.102371 
	C262.835419,41.970600 270.569519,43.240406 278.430481,40.092140 
	C280.412506,39.298340 281.529907,40.472473 280.704956,42.811653 
	C278.865295,48.028145 271.765106,51.600807 264.297577,50.989315 
	C259.868347,50.626625 254.025009,45.514320 253.302170,41.268692 
	C253.252121,40.974705 253.938019,40.555416 254.667969,40.102371 
z"/>
<path fill="#FFFFFF" opacity="1.000000" stroke="none" 
	d="
M263.756622,371.333221 
	C265.720978,371.114075 267.438721,371.062714 269.579346,371.091888 
	C270.165375,371.282501 270.328461,371.392548 270.648560,371.752502 
	C270.857971,378.776855 270.965973,385.551636 270.917297,392.325317 
	C270.907196,393.733856 270.297485,395.134155 269.997772,396.545410 
	C269.433044,399.204498 267.348145,397.666962 265.971069,397.956329 
	C263.975067,398.375793 263.905701,396.913696 264.005249,395.514557 
	C264.543945,387.943573 262.340332,380.492218 263.104523,372.456665 
	C263.289062,371.831818 263.399536,371.666412 263.756622,371.333221 
z"/>
<path fill="#FDFDFD" opacity="1.000000" stroke="none" 
	d="
M268.752441,90.344589 
	C273.886017,89.801582 278.581024,89.743553 282.920380,92.917992 
	C285.303680,94.661499 285.607025,95.561760 282.822113,96.571243 
	C279.285706,97.853119 276.760742,100.395485 274.447723,103.101357 
	C271.187225,106.915688 269.760010,103.820145 269.366211,101.454865 
	C268.839294,98.289680 267.452881,95.178284 268.107208,91.420624 
	C268.293060,90.829124 268.400177,90.666412 268.752441,90.344589 
z"/>
<path fill="#FDFDFD" opacity="1.000000" stroke="none" 
	d="
M265.654297,90.752335 
	C266.843140,94.649635 264.949524,98.046921 264.808838,101.626053 
	C264.713623,104.049706 262.025848,103.425072 261.150452,102.442474 
	C258.050201,98.962593 254.088013,96.844597 249.894684,94.861542 
	C253.700882,89.618752 258.983521,90.033958 264.568787,90.108795 
	C265.170898,90.293907 265.333527,90.400558 265.654297,90.752335 
z"/>
<path fill="#F2F2F2" opacity="1.000000" stroke="none" 
	d="
M272.877716,198.731201 
	C272.573029,198.906570 272.360687,198.752228 272.100616,198.359756 
	C272.313446,198.277023 272.619171,198.370316 272.877716,198.731201 
z"/>
<path fill="#F2F2F2" opacity="1.000000" stroke="none" 
	d="
M268.732544,90.132858 
	C268.907562,90.441330 268.753754,90.650162 268.360992,90.901901 
	C268.279755,90.687973 268.373627,90.384109 268.732544,90.132858 
z"/>
<path fill="#EEEEEE" opacity="1.000000" stroke="none" 
	d="
M263.732544,371.117279 
	C263.908203,371.424622 263.751709,371.639008 263.356201,371.902893 
	C263.273010,371.687866 263.367432,371.378510 263.732544,371.117279 
z"/>
<path fill="#F2F2F2" opacity="1.000000" stroke="none" 
	d="
M265.866150,90.732529 
	C265.557007,90.907845 265.348633,90.754318 265.097809,90.362061 
	C265.312103,90.280701 265.615997,90.374153 265.866150,90.732529 
z"/>
<path fill="#EEEEEE" opacity="1.000000" stroke="none" 
	d="
M270.863831,371.736267 
	C270.545410,371.912537 270.336914,371.754486 270.091125,371.350342 
	C270.308868,371.271637 270.615479,371.370880 270.863831,371.736267 
z"/>
<path fill="#000000" opacity="1.000000" stroke="none"
	d="
M239.030090,103.180801 
	C237.638687,101.018738 238.616806,100.240913 240.313431,100.024803 
	C241.812607,99.833839 243.157196,100.751587 242.854523,102.148918 
	C242.457520,103.981636 240.907730,104.569313 239.030090,103.180801 
z"/>
<path fill="#000000" opacity="1.000000" stroke="none"
	d="
M296.981049,100.912552 
	C296.745056,103.113617 296.207886,104.664528 293.968323,103.454826 
	C293.205292,103.042686 291.219147,103.058273 292.283142,101.343178 
	C293.412506,99.522682 295.169830,99.546028 296.981049,100.912552 
z"/>
</svg>